<?xml version="1.0" encoding="utf-8" ?><svg xmlns="http://www.w3.org/2000/svg" xmlns:xlink="http://www.w3.org/1999/xlink" width="4000" height="4000" viewBox="0 0 4000 4000" xmlns:c2pa="http://c2pa.org/manifest"><metadata><c2pa:manifest>AAAk4Wp1bWIAAAAeanVtZGMycGEAEQAQgAAAqgA4m3EDYzJwYQAAAA6CanVtYgAAAEdqdW1kYzJtYQARABCAAACqADibcQN1cm46YzJwYTo2ZmE2MmQ4Yy02ZmU0LTQxYjEtYmU1ZS0wNmUxOTYyYTNmYTkAAAADs2p1bWIAAAApanVtZGMyYXMAEQAQgAAAqgA4m3EDYzJwYS5hc3NlcnRpb25zAAAAAMlqdW1iAAAARGp1bWRjYm9yABEAEIAAAKoAOJtxE2MycGEuaW5ncmVkaWVudC52MwAAAAAYYzJzaIhiJ6oPExIjP9SK7zguDXkAAAB9Y2JvcqRscmVsYXRpb25zaGlwaHBhcmVudE9maGRjOnRpdGxlZnNvdXJjZWlkYzpmb3JtYXRqaW1hZ2Uvd2VicGppbnN0YW5jZUlEeCx4bXA6aWlkOjQ3YTk3NmEwLWRmYzMtNDc1MS1iNTRmLWFlZjQ2YjNhMGE2YgAAAfVqdW1iAAAAQWp1bWRjYm9yABEAEIAAAKoAOJtxE2MycGEuYWN0aW9ucy52MgAAAAAYYzJzaM5t8laRH5zFoFdiW9iWJwwAAAGsY2JvcqFnYWN0aW9uc4KiZmFjdGlvbmtjMnBhLm9wZW5lZGpwYXJhbWV0ZXJzoWtpbmdyZWRpZW50c4GiY3VybHgtc2VsZiNqdW1iZj1jMnBhLmFzc2VydGlvbnMvYzJwYS5pbmdyZWRpZW50LnYzZGhhc2hYIPYNlYXTnc6PArZV5dC8vPMAJloV5Eqx3ErjiuMq4GdapGZhY3Rpb25rYzJwYS5lZGl0ZWRqcGFyYW1ldGVyc6FraW5ncmVkaWVudHOBomN1cmx4LXNlbGYjanVtYmY9YzJwYS5hc3NlcnRpb25zL2MycGEuaW5ncmVkaWVudC52M2RoYXNoWCD2DZWF053OjwK2VeXQvLzzACZaFeRKsdxK44rjKuBnWnFkaWdpdGFsU291cmNlVHlwZXhTaHR0cDovL2N2LmlwdGMub3JnL25ld3Njb2Rlcy9kaWdpdGFsc291cmNldHlwZS9jb21wb3NpdGVXaXRoVHJhaW5lZEFsZ29yaXRobWljTWVkaWFrZGVzY3JpcHRpb252Q3JlYXRlZCBieSBSZWNyYWZ0IEFJLgAAAMRqdW1iAAAAQGp1bWRjYm9yABEAEIAAAKoAOJtxE2MycGEuaGFzaC5kYXRhAAAAABhjMnNo5eIRiNvfkE77z2g1MIcPjQAAAHxjYm9ypWpleGNsdXNpb25zgaJlc3RhcnQY2WZsZW5ndGgZE4xkbmFtZW5qdW1iZiBtYW5pZmVzdGNhbGdmc2hhMjU2ZGhhc2hYIGPA6GqinmxBrzAI+M6AhUOOBDLOYjaGkEU1oN7X8VqsY3BhZEkAAAAAAAAAAAAAAAKkanVtYgAAACdqdW1kYzJjbAARABCAAACqADibcQNjMnBhLmNsYWltLnYyAAAAAnVjYm9yp2ppbnN0YW5jZUlEeCx4bXA6aWlkOjYxOGY5YzA1LWU5N2QtNGRjNS05YWY3LWJlN2Q0MDk3MjAwZHRjbGFpbV9nZW5lcmF0b3JfaW5mb6NkbmFtZWpyZWNyYWZ0LmFpZ3ZlcnNpb254KDgxY2U4MmUyYzVjM2NiZmJlOGM2ZmJlMTc5ZDVmOGQ5MWM0MDljZTF3b3JnLmNvbnRlbnRhdXRoLmMycGFfcnNmMC45MC43aXNpZ25hdHVyZXhNc2VsZiNqdW1iZj0vYzJwYS91cm46YzJwYTo2ZmE2MmQ4Yy02ZmU0LTQxYjEtYmU1ZS0wNmUxOTYyYTNmYTkvYzJwYS5zaWduYXR1cmVyY3JlYXRlZF9hc3NlcnRpb25zgqJjdXJseCpzZWxmI2p1bWJmPWMycGEuYXNzZXJ0aW9ucy9jMnBhLmFjdGlvbnMudjJkaGFzaFggVWedP11otL35ughXzEmuxzYorUOwZRfx4ksHEYCQi8KiY3VybHgpc2VsZiNqdW1iZj1jMnBhLmFzc2VydGlvbnMvYzJwYS5oYXNoLmRhdGFkaGFzaFggLk0lQM6Fw/XGYajjBW8NiWlcZRt8m9y8EmFdI03WOCBzZ2F0aGVyZWRfYXNzZXJ0aW9uc4GiY3VybHgtc2VsZiNqdW1iZj1jMnBhLmFzc2VydGlvbnMvYzJwYS5pbmdyZWRpZW50LnYzZGhhc2hYIPYNlYXTnc6PArZV5dC8vPMAJloV5Eqx3ErjiuMq4GdaaGRjOnRpdGxleBpSZWNyYWZ0IEFJIEdlbmVyYXRlZCBJbWFnZWNhbGdmc2hhMjU2AAAH3Gp1bWIAAAAoanVtZGMyY3MAEQAQgAAAqgA4m3EDYzJwYS5zaWduYXR1cmUAAAAHrGNib3LShFkDsKIBJhghglkB5zCCAeMwggGJoAMCAQICCQC33lpjQ1FuejAKBggqhkjOPQQDAjBAMR8wHQYDVQQDDBZSZWNyYWZ0IFN0YWdpbmcgRGV2IENBMRAwDgYDVQQKDAdSZWNyYWZ0MQswCQYDVQQGEwJVUzAeFw0yNjA2MTIxOTQzNTBaFw0yNzA2MTIxOTQzNTBaMDcxCzAJBgNVBAYTAlVTMRMwEQYDVQQKEwpSZWNyYWZ0IEFJMRMwEQYDVQQDEwpyZWNyYWZ0LmFpMFkwEwYHKoZIzj0CAQYIKoZIzj0DAQcDQgAESmk1WwArIPw3hty3jsWHSA/1QOhBRu9xOjpJ2/iiIghScoEVM+Lnjds/7dqmG+giFL0vEb4DoogpX6KrGLcPNaN1MHMwDAYDVR0TAQH/BAIwADAOBgNVHQ8BAf8EBAMCBsAwEwYDVR0lBAwwCgYIKwYBBQUHAwQwHQYDVR0OBBYEFC8x6QXp/eki9cuCDx2vDJDLIV39MB8GA1UdIwQYMBaAFAILKjgayqqXSv/5v5MWaO2UeHm3MAoGCCqGSM49BAMCA0gAMEUCIFPISltGl775PEkIFRTZGsevWJvWnvBrE9kWU0MPgedQAiEAtA+AZBKEQ+DdK9mUZDctB2Wlt1iAsv0GRjfeYpReMsxZAb0wggG5MIIBX6ADAgECAgkAnPloO0+gE28wCgYIKoZIzj0EAwIwQDEfMB0GA1UEAwwWUmVjcmFmdCBTdGFnaW5nIERldiBDQTEQMA4GA1UECgwHUmVjcmFmdDELMAkGA1UEBhMCVVMwHhcNMjYwNjEyMTk0MDE2WhcNMjgwNjExMTk0MDE2WjBAMR8wHQYDVQQDDBZSZWNyYWZ0IFN0YWdpbmcgRGV2IENBMRAwDgYDVQQKDAdSZWNyYWZ0MQswCQYDVQQGEwJVUzBZMBMGByqGSM49AgEGCCqGSM49AwEHA0IABEPSEAZXFWymij2K0EnzoS/9NLO8VAwu0YpyLizvyNZPfcvcoeqFhfZD8Wj/rcdb9T3ji98q1arie99B9GRog8qjQjBAMA8GA1UdEwEB/wQFMAMBAf8wDgYDVR0PAQH/BAQDAgGGMB0GA1UdDgQWBBQCCyo4Gsqql0r/+b+TFmjtlHh5tzAKBggqhkjOPQQDAgNIADBFAiBUMDSJi5WA3kIY4BfmYqk24HLs0qpjicN0NpUP4bvNxQIhAPTvHC5v8X6FS6geI7XW7h84t1i/qdkTfg0RpMKWLMFboWNwYWRZA6QAAAAAAAAAAAAAAAAAAAAAAAAAAAAAAAAAAAAAAAAAAAAAAAAAAAAAAAAAAAAAAAAAAAAAAAAAAAAAAAAAAAAAAAAAAAAAAAAAAAAAAAAAAAAAAAAAAAAAAAAAAAAAAAAAAAAAAAAAAAAAAAAAAAAAAAAAAAAAAAAAAAAAAAAAAAAAAAAAAAAAAAAAAAAAAAAAAAAAAAAAAAAAAAAAAAAAAAAAAAAAAAAAAAAAAAAAAAAAAAAAAAAAAAAAAAAAAAAAAAAAAAAAAAAAAAAAAAAAAAAAAAAAAAAAAAAAAAAAAAAAAAAAAAAAAAAAAAAAAAAAAAAAAAAAAAAAAAAAAAAAAAAAAAAAAAAAAAAAAAAAAAAAAAAAAAAAAAAAAAAAAAAAAAAAAAAAAAAAAAAAAAAAAAAAAAAAAAAAAAAAAAAAAAAAAAAAAAAAAAAAAAAAAAAAAAAAAAAAAAAAAAAAAAAAAAAAAAAAAAAAAAAAAAAAAAAAAAAAAAAAAAAAAAAAAAAAAAAAAAAAAAAAAAAAAAAAAAAAAAAAAAAAAAAAAAAAAAAAAAAAAAAAAAAAAAAAAAAAAAAAAAAAAAAAAAAAAAAAAAAAAAAAAAAAAAAAAAAAAAAAAAAAAAAAAAAAAAAAAAAAAAAAAAAAAAAAAAAAAAAAAAAAAAAAAAAAAAAAAAAAAAAAAAAAAAAAAAAAAAAAAAAAAAAAAAAAAAAAAAAAAAAAAAAAAAAAAAAAAAAAAAAAAAAAAAAAAAAAAAAAAAAAAAAAAAAAAAAAAAAAAAAAAAAAAAAAAAAAAAAAAAAAAAAAAAAAAAAAAAAAAAAAAAAAAAAAAAAAAAAAAAAAAAAAAAAAAAAAAAAAAAAAAAAAAAAAAAAAAAAAAAAAAAAAAAAAAAAAAAAAAAAAAAAAAAAAAAAAAAAAAAAAAAAAAAAAAAAAAAAAAAAAAAAAAAAAAAAAAAAAAAAAAAAAAAAAAAAAAAAAAAAAAAAAAAAAAAAAAAAAAAAAAAAAAAAAAAAAAAAAAAAAAAAAAAAAAAAAAAAAAAAAAAAAAAAAAAAAAAAAAAAAAAAAAAAAAAAAAAAAAAAAAAAAAAAAAAAAAAAAAAAAAAAAAAAAAAAAAAAAAAAAAAAAAAAAAAAAAAAAAAAAAAAAAAAAAAAAAAAAAAAAAAAAAAAAAAAAAAAAAAAAAAAAAAAAAAAAAAAAAAAAAAAAAAAAAAAAAAAAAAAAAAAAAAAAAAAAAAAAAPZYQKpaNq+P+lplH6q715LRJRPx2ekabVNHohMtw/G1GaWu48tujMP6za70w8tgt+8Db6ggTEuunzda+VKNFgJJ+XMAABY5anVtYgAAAEdqdW1kYzJtYQARABCAAACqADibcQN1cm46YzJwYTpiM2M3YTk0Mi1mYzJiLTQ2ZTQtOWVlNS1jYjAyZjI3N2RmNmYAAAALeGp1bWIAAAApanVtZGMyYXMAEQAQgAAAqgA4m3EDYzJwYS5hc3NlcnRpb25zAAAACJVqdW1iAAAARGp1bWRjYm9yABEAEIAAAKoAOJtxE2MycGEuaW5ncmVkaWVudC52MwAAAAAYYzJzaIuw+3x+KL1/JCHI+aZy1nwAAAhJY2JvcqdscmVsYXRpb25zaGlwaHBhcmVudE9maGRjOnRpdGxlZnNvdXJjZWlkYzpmb3JtYXRtaW1hZ2Uvc3ZnK3htbHF2YWxpZGF0aW9uUmVzdWx0c6JuYWN0aXZlTWFuaWZlc3SjZ3N1Y2Nlc3OGo2Rjb2RleB1jbGFpbVNpZ25hdHVyZS5pbnNpZGVWYWxpZGl0eWN1cmx4TXNlbGYjanVtYmY9L2MycGEvdXJuOmMycGE6NmZhNjJkOGMtNmZlNC00MWIxLWJlNWUtMDZlMTk2MmEzZmE5L2MycGEuc2lnbmF0dXJla2V4cGxhbmF0aW9udWNsYWltIHNpZ25hdHVyZSB2YWxpZKNkY29kZXgYY2xhaW1TaWduYXR1cmUudmFsaWRhdGVkY3VybHhNc2VsZiNqdW1iZj0vYzJwYS91cm46YzJwYTo2ZmE2MmQ4Yy02ZmU0LTQxYjEtYmU1ZS0wNmUxOTYyYTNmYTkvYzJwYS5zaWduYXR1cmVrZXhwbGFuYXRpb251Y2xhaW0gc2lnbmF0dXJlIHZhbGlko2Rjb2RleBlhc3NlcnRpb24uaGFzaGVkVVJJLm1hdGNoY3VybHhec2VsZiNqdW1iZj0vYzJwYS91cm46YzJwYTo2ZmE2MmQ4Yy02ZmU0LTQxYjEtYmU1ZS0wNmUxOTYyYTNmYTkvYzJwYS5hc3NlcnRpb25zL2MycGEuYWN0aW9ucy52MmtleHBsYW5hdGlvbng+aGFzaGVkIHVyaSBtYXRjaGVkOiBzZWxmI2p1bWJmPWMycGEuYXNzZXJ0aW9ucy9jMnBhLmFjdGlvbnMudjKjZGNvZGV4GWFzc2VydGlvbi5oYXNoZWRVUkkubWF0Y2hjdXJseF1zZWxmI2p1bWJmPS9jMnBhL3VybjpjMnBhOjZmYTYyZDhjLTZmZTQtNDFiMS1iZTVlLTA2ZTE5NjJhM2ZhOS9jMnBhLmFzc2VydGlvbnMvYzJwYS5oYXNoLmRhdGFrZXhwbGFuYXRpb254PWhhc2hlZCB1cmkgbWF0Y2hlZDogc2VsZiNqdW1iZj1jMnBhLmFzc2VydGlvbnMvYzJwYS5oYXNoLmRhdGGjZGNvZGV4GWFzc2VydGlvbi5oYXNoZWRVUkkubWF0Y2hjdXJseGFzZWxmI2p1bWJmPS9jMnBhL3VybjpjMnBhOjZmYTYyZDhjLTZmZTQtNDFiMS1iZTVlLTA2ZTE5NjJhM2ZhOS9jMnBhLmFzc2VydGlvbnMvYzJwYS5pbmdyZWRpZW50LnYza2V4cGxhbmF0aW9ueEFoYXNoZWQgdXJpIG1hdGNoZWQ6IHNlbGYjanVtYmY9YzJwYS5hc3NlcnRpb25zL2MycGEuaW5ncmVkaWVudC52M6NkY29kZXgYYXNzZXJ0aW9uLmRhdGFIYXNoLm1hdGNoY3VybHhdc2VsZiNqdW1iZj0vYzJwYS91cm46YzJwYTo2ZmE2MmQ4Yy02ZmU0LTQxYjEtYmU1ZS0wNmUxOTYyYTNmYTkvYzJwYS5hc3NlcnRpb25zL2MycGEuaGFzaC5kYXRha2V4cGxhbmF0aW9ub2RhdGEgaGFzaCB2YWxpZG1pbmZvcm1hdGlvbmFsgGdmYWlsdXJlgaNkY29kZXgbc2lnbmluZ0NyZWRlbnRpYWwudW50cnVzdGVkY3VybHhNc2VsZiNqdW1iZj0vYzJwYS91cm46YzJwYTo2ZmE2MmQ4Yy02ZmU0LTQxYjEtYmU1ZS0wNmUxOTYyYTNmYTkvYzJwYS5zaWduYXR1cmVrZXhwbGFuYXRpb254HXNpZ25pbmcgY2VydGlmaWNhdGUgdW50cnVzdGVkcGluZ3JlZGllbnREZWx0YXOBonZpbmdyZWRpZW50QXNzZXJ0aW9uVVJJeGFzZWxmI2p1bWJmPS9jMnBhL3VybjpjMnBhOjZmYTYyZDhjLTZmZTQtNDFiMS1iZTVlLTA2ZTE5NjJhM2ZhOS9jMnBhLmFzc2VydGlvbnMvYzJwYS5pbmdyZWRpZW50LnYzcHZhbGlkYXRpb25EZWx0YXOjZ3N1Y2Nlc3OAbWluZm9ybWF0aW9uYWyBo2Rjb2RleBxpbmdyZWRpZW50LnVua25vd25Qcm92ZW5hbmNlY3VybHhhc2VsZiNqdW1iZj0vYzJwYS91cm46YzJwYTo2ZmE2MmQ4Yy02ZmU0LTQxYjEtYmU1ZS0wNmUxOTYyYTNmYTkvYzJwYS5hc3NlcnRpb25zL2MycGEuaW5ncmVkaWVudC52M2tleHBsYW5hdGlvbngrc291cmNlOiBpbmdyZWRpZW50IGRvZXMgbm90IGhhdmUgcHJvdmVuYW5jZWdmYWlsdXJlgGppbnN0YW5jZUlEeCx4bXA6aWlkOmU3YTE2NzliLWQ0YmUtNDMyZS05YjNlLTliODljYWI0YThmMm5hY3RpdmVNYW5pZmVzdKNjdXJseD5zZWxmI2p1bWJmPS9jMnBhL3VybjpjMnBhOjZmYTYyZDhjLTZmZTQtNDFiMS1iZTVlLTA2ZTE5NjJhM2ZhOWNhbGdmc2hhMjU2ZGhhc2hYIOddsFQiiSSK2YUHDXhmwBubTxa9dv9ddYik48CsdoxNbmNsYWltU2lnbmF0dXJlo2N1cmx4TXNlbGYjanVtYmY9L2MycGEvdXJuOmMycGE6NmZhNjJkOGMtNmZlNC00MWIxLWJlNWUtMDZlMTk2MmEzZmE5L2MycGEuc2lnbmF0dXJlY2FsZ2ZzaGEyNTZkaGFzaFgg9AfZEWtjdop/9/bttsAQN6EeForfnmFri4KQYTO15v0AAAHuanVtYgAAAEFqdW1kY2JvcgARABCAAACqADibcRNjMnBhLmFjdGlvbnMudjIAAAAAGGMyc2hm3GUXwiU+827GLb89d7FMAAABpWNib3KhZ2FjdGlvbnOComZhY3Rpb25rYzJwYS5vcGVuZWRqcGFyYW1ldGVyc6FraW5ncmVkaWVudHOBomN1cmx4LXNlbGYjanVtYmY9YzJwYS5hc3NlcnRpb25zL2MycGEuaW5ncmVkaWVudC52M2RoYXNoWCBz7xhT6Q5DcP5/joYg2sE4cJPVgOlP5bBVp8zMKiwXnKRmYWN0aW9ubGMycGEuY3JlYXRlZGpwYXJhbWV0ZXJzoWtpbmdyZWRpZW50c4GiY3VybHgtc2VsZiNqdW1iZj1jMnBhLmFzc2VydGlvbnMvYzJwYS5pbmdyZWRpZW50LnYzZGhhc2hYIHPvGFPpDkNw/n+OhiDawThwk9WA6U/lsFWnzMwqLBeccWRpZ2l0YWxTb3VyY2VUeXBleEFodHRwOi8vY3YuaXB0Yy5vcmcvbmV3c2NvZGVzL2RpZ2l0YWxzb3VyY2V0eXBlL2NvbXBvc2l0ZVN5bnRoZXRpY2tkZXNjcmlwdGlvbngfQ29tcG9zZWQgaW4gdGhlIFJlY3JhZnQgZWRpdG9yLgAAAMRqdW1iAAAAQGp1bWRjYm9yABEAEIAAAKoAOJtxE2MycGEuaGFzaC5kYXRhAAAAABhjMnNonHVOYZnb+pJThLPEyduycgAAAHxjYm9ypWpleGNsdXNpb25zgaJlc3RhcnQY7GZsZW5ndGgZMSxkbmFtZW5qdW1iZiBtYW5pZmVzdGNhbGdmc2hhMjU2ZGhhc2hYINgCl4O9b7VBaHL1u1+AK1+qcvifmkCCBhSShR8jHbTCY3BhZEkAAAAAAAAAAAAAAAKWanVtYgAAACdqdW1kYzJjbAARABCAAACqADibcQNjMnBhLmNsYWltLnYyAAAAAmdjYm9yp2ppbnN0YW5jZUlEeCx4bXA6aWlkOmUwNTY5MDA0LTRjYWUtNDcxNy1iMzYxLTQ0OTFiMTQ0MmFmY3RjbGFpbV9nZW5lcmF0b3JfaW5mb6NkbmFtZWpyZWNyYWZ0LmFpZ3ZlcnNpb254KDgxY2U4MmUyYzVjM2NiZmJlOGM2ZmJlMTc5ZDVmOGQ5MWM0MDljZTF3b3JnLmNvbnRlbnRhdXRoLmMycGFfcnNmMC45MC43aXNpZ25hdHVyZXhNc2VsZiNqdW1iZj0vYzJwYS91cm46YzJwYTpiM2M3YTk0Mi1mYzJiLTQ2ZTQtOWVlNS1jYjAyZjI3N2RmNmYvYzJwYS5zaWduYXR1cmVyY3JlYXRlZF9hc3NlcnRpb25zgqJjdXJseCpzZWxmI2p1bWJmPWMycGEuYXNzZXJ0aW9ucy9jMnBhLmFjdGlvbnMudjJkaGFzaFgg8pE4kaKcp++1jVRXve1QJOE1YijFgrdhupuxE4A4lHKiY3VybHgpc2VsZiNqdW1iZj1jMnBhLmFzc2VydGlvbnMvYzJwYS5oYXNoLmRhdGFkaGFzaFggIOPw/sxw8swz1nX251BCSMm0ik8x6NJzzwvnsmNfAF9zZ2F0aGVyZWRfYXNzZXJ0aW9uc4GiY3VybHgtc2VsZiNqdW1iZj1jMnBhLmFzc2VydGlvbnMvYzJwYS5pbmdyZWRpZW50LnYzZGhhc2hYIHPvGFPpDkNw/n+OhiDawThwk9WA6U/lsFWnzMwqLBecaGRjOnRpdGxlbVJlY3JhZnQgSW1hZ2VjYWxnZnNoYTI1NgAAB9xqdW1iAAAAKGp1bWRjMmNzABEAEIAAAKoAOJtxA2MycGEuc2lnbmF0dXJlAAAAB6xjYm9y0oRZA7CiASYYIYJZAecwggHjMIIBiaADAgECAgkAt95aY0NRbnowCgYIKoZIzj0EAwIwQDEfMB0GA1UEAwwWUmVjcmFmdCBTdGFnaW5nIERldiBDQTEQMA4GA1UECgwHUmVjcmFmdDELMAkGA1UEBhMCVVMwHhcNMjYwNjEyMTk0MzUwWhcNMjcwNjEyMTk0MzUwWjA3MQswCQYDVQQGEwJVUzETMBEGA1UEChMKUmVjcmFmdCBBSTETMBEGA1UEAxMKcmVjcmFmdC5haTBZMBMGByqGSM49AgEGCCqGSM49AwEHA0IABEppNVsAKyD8N4bct47Fh0gP9UDoQUbvcTo6Sdv4oiIIUnKBFTPi543bP+3aphvoIhS9LxG+A6KIKV+iqxi3DzWjdTBzMAwGA1UdEwEB/wQCMAAwDgYDVR0PAQH/BAQDAgbAMBMGA1UdJQQMMAoGCCsGAQUFBwMEMB0GA1UdDgQWBBQvMekF6f3pIvXLgg8drwyQyyFd/TAfBgNVHSMEGDAWgBQCCyo4Gsqql0r/+b+TFmjtlHh5tzAKBggqhkjOPQQDAgNIADBFAiBTyEpbRpe++TxJCBUU2RrHr1ib1p7waxPZFlNDD4HnUAIhALQPgGQShEPg3SvZlGQ3LQdlpbdYgLL9BkY33mKUXjLMWQG9MIIBuTCCAV+gAwIBAgIJAJz5aDtPoBNvMAoGCCqGSM49BAMCMEAxHzAdBgNVBAMMFlJlY3JhZnQgU3RhZ2luZyBEZXYgQ0ExEDAOBgNVBAoMB1JlY3JhZnQxCzAJBgNVBAYTAlVTMB4XDTI2MDYxMjE5NDAxNloXDTI4MDYxMTE5NDAxNlowQDEfMB0GA1UEAwwWUmVjcmFmdCBTdGFnaW5nIERldiBDQTEQMA4GA1UECgwHUmVjcmFmdDELMAkGA1UEBhMCVVMwWTATBgcqhkjOPQIBBggqhkjOPQMBBwNCAARD0hAGVxVspoo9itBJ86Ev/TSzvFQMLtGKci4s78jWT33L3KHqhYX2Q/Fo/63HW/U944vfKtWq4nvfQfRkaIPKo0IwQDAPBgNVHRMBAf8EBTADAQH/MA4GA1UdDwEB/wQEAwIBhjAdBgNVHQ4EFgQUAgsqOBrKqpdK//m/kxZo7ZR4ebcwCgYIKoZIzj0EAwIDSAAwRQIgVDA0iYuVgN5CGOAX5mKpNuBy7NKqY4nDdDaVD+G7zcUCIQD07xwub/F+hUuoHiO11u4fOLdYv6nZE34NEaTClizBW6FjcGFkWQOkAAAAAAAAAAAAAAAAAAAAAAAAAAAAAAAAAAAAAAAAAAAAAAAAAAAAAAAAAAAAAAAAAAAAAAAAAAAAAAAAAAAAAAAAAAAAAAAAAAAAAAAAAAAAAAAAAAAAAAAAAAAAAAAAAAAAAAAAAAAAAAAAAAAAAAAAAAAAAAAAAAAAAAAAAAAAAAAAAAAAAAAAAAAAAAAAAAAAAAAAAAAAAAAAAAAAAAAAAAAAAAAAAAAAAAAAAAAAAAAAAAAAAAAAAAAAAAAAAAAAAAAAAAAAAAAAAAAAAAAAAAAAAAAAAAAAAAAAAAAAAAAAAAAAAAAAAAAAAAAAAAAAAAAAAAAAAAAAAAAAAAAAAAAAAAAAAAAAAAAAAAAAAAAAAAAAAAAAAAAAAAAAAAAAAAAAAAAAAAAAAAAAAAAAAAAAAAAAAAAAAAAAAAAAAAAAAAAAAAAAAAAAAAAAAAAAAAAAAAAAAAAAAAAAAAAAAAAAAAAAAAAAAAAAAAAAAAAAAAAAAAAAAAAAAAAAAAAAAAAAAAAAAAAAAAAAAAAAAAAAAAAAAAAAAAAAAAAAAAAAAAAAAAAAAAAAAAAAAAAAAAAAAAAAAAAAAAAAAAAAAAAAAAAAAAAAAAAAAAAAAAAAAAAAAAAAAAAAAAAAAAAAAAAAAAAAAAAAAAAAAAAAAAAAAAAAAAAAAAAAAAAAAAAAAAAAAAAAAAAAAAAAAAAAAAAAAAAAAAAAAAAAAAAAAAAAAAAAAAAAAAAAAAAAAAAAAAAAAAAAAAAAAAAAAAAAAAAAAAAAAAAAAAAAAAAAAAAAAAAAAAAAAAAAAAAAAAAAAAAAAAAAAAAAAAAAAAAAAAAAAAAAAAAAAAAAAAAAAAAAAAAAAAAAAAAAAAAAAAAAAAAAAAAAAAAAAAAAAAAAAAAAAAAAAAAAAAAAAAAAAAAAAAAAAAAAAAAAAAAAAAAAAAAAAAAAAAAAAAAAAAAAAAAAAAAAAAAAAAAAAAAAAAAAAAAAAAAAAAAAAAAAAAAAAAAAAAAAAAAAAAAAAAAAAAAAAAAAAAAAAAAAAAAAAAAAAAAAAAAAAAAAAAAAAAAAAAAAAAAAAAAAAAAAAAAAAAAAAAAAAAAAAAAAAAAAAAAAAAAAAAAAAAAAAAAAAAAAAAAAAAAAAAAAAAAAAAAAAAAAAAAAAAAAAAAAAAAAAAAAAAAAAAAAAAAAAAAAAAAAAAAAAAAAAAAAAAAAAAAAAAAAAAAAAAAAAAAAAAAAAAD2WEDaEoyAIO8eHSUCMDv24S4dkwp4j83RoPmlX9NtmLgAdGNDYoCL1WOlhSOdEAFF++XaUkJGeVVE6oIRth98YE/B</c2pa:manifest></metadata><path fill="#CEAA50" transform="scale(8 8)" d="M108.654 353.07C108.424 350.27 108.538 346.472 108.543 343.597L108.547 327.905L108.534 277.389L108.543 192.465C108.544 178.452 108.228 163.295 108.556 149.412C111.484 148.644 118.366 148.986 121.655 148.993L143.339 148.986L174.948 148.972C182.294 148.97 191.821 148.765 198.942 149.747C208.707 151.093 224.452 156.299 232.583 162.083C228.775 172.586 225.297 182.775 223.361 193.829C223.163 194.963 222.909 196.434 222.597 197.523C220.831 196.122 216.531 192.774 214.84 191.806C209.536 188.767 199.876 184.58 194.027 183.67C181.056 181.65 166.851 182.918 153.728 182.715C150.393 182.664 147.042 183.022 143.749 182.857L143.379 182.837C143.65 187.71 143.474 194.073 143.47 199.036L143.451 228.092L143.506 318.75C159.318 318.39 179.422 320.061 194.596 317.505C216.733 313.776 237.218 292.624 242.606 271.327C243.992 265.847 245.023 259.787 245.614 254.122C253.369 192.624 308.324 151.473 368.506 149.112L368.535 171.75C368.545 175.098 368.774 179.869 368.598 183.089C367.186 183.195 365.722 183.531 364.325 183.685C329.645 187.502 295.783 208.045 284.175 242.278C281.172 251.134 280.334 260.337 278.706 269.713C271.398 311.794 239.469 347.192 195.989 352.249C184.721 353.554 172.469 353.028 160.979 353.025L108.654 353.07Z"/><path fill="#CEAA50" transform="scale(8 8)" d="M308.358 310.029C310.882 310.97 313.525 312.237 316.026 313.197C332.317 319.447 349.228 315.891 361.972 304.072C370.052 296.58 375.534 287.59 377.07 276.374C377.726 271.587 377.518 266.306 377.516 261.487L377.501 241.247C377.499 235.359 377.428 225.985 378.704 220.287C380.039 214.362 382.648 208.798 386.35 203.983C392.93 195.358 402.225 191.436 412.656 189.987C412.822 195.258 412.688 200.909 412.682 206.219L412.715 234.557C412.76 247.22 413.412 264.404 412.021 276.704C411.997 278.095 411.851 283.18 411.515 284.531C411.453 292.026 402.504 316.484 396.466 320.549C394.72 323.198 391.87 326.284 389.642 328.568C379.25 339.367 366.024 347.018 351.482 350.644C331.382 355.686 306.953 352.22 289.21 341.477C284.973 338.911 268.27 326.437 267.502 322.346C267.136 320.397 271.352 316.074 272.461 314.447C276.424 308.631 279.998 301.397 282.403 294.801C283.807 290.951 284.466 286.124 286.688 282.695C286.754 281.341 287.063 280.517 287.439 279.226C288.385 283.864 289.439 286.693 291.448 290.968C295.133 297.318 301.886 306.273 308.358 310.029Z"/><path fill="#CEAA50" transform="scale(8 8)" d="M287.439 279.226C288.385 283.864 289.439 286.693 291.448 290.968C295.133 297.318 301.886 306.273 308.358 310.029C310.459 315.433 326.629 322.454 331.898 324.198C364.019 334.835 400.527 315.106 410.131 282.909C410.363 283.773 410.562 283.979 411.515 284.531C411.453 292.026 402.504 316.484 396.466 320.549C394.72 323.198 391.87 326.284 389.642 328.568C379.25 339.367 366.024 347.018 351.482 350.644C331.382 355.686 306.953 352.22 289.21 341.477C284.973 338.911 268.27 326.437 267.502 322.346C267.136 320.397 271.352 316.074 272.461 314.447C276.424 308.631 279.998 301.397 282.403 294.801C283.807 290.951 284.466 286.124 286.688 282.695C286.754 281.341 287.063 280.517 287.439 279.226Z"/><path fill="#0D345D" transform="scale(8 8)" d="M410.131 282.909C410.363 283.773 410.562 283.979 411.515 284.531C411.453 292.026 402.504 316.484 396.466 320.549C393.942 321.877 391.242 324.224 388.859 325.875C378.088 333.339 366.487 337.246 353.426 337.514C340.2 337.786 329.664 334.952 318.284 328.243C304.874 320.336 293.065 306.182 289.195 291.006C289.722 289.996 289.199 289.594 289.295 288.268L289.507 288.092C290.167 288.951 289.926 289.324 290.195 290.314C290.748 290.511 291 290.587 291.448 290.968C295.133 297.318 301.886 306.273 308.358 310.029C310.459 315.433 326.629 322.454 331.898 324.198C364.019 334.835 400.527 315.106 410.131 282.909Z"/><path fill="#020306" transform="scale(8 8)" d="M287.439 279.226C288.385 283.864 289.439 286.693 291.448 290.968C291 290.587 290.748 290.511 290.195 290.314C289.926 289.324 290.167 288.951 289.507 288.092L289.295 288.268C289.199 289.594 289.722 289.996 289.195 291.006C288.554 289.211 287.441 283.693 286.688 282.695C286.754 281.341 287.063 280.517 287.439 279.226Z"/><path fill="#020306" transform="scale(8 8)" d="M412.021 276.704C411.997 278.095 411.851 283.18 411.515 284.531C410.562 283.979 410.363 283.773 410.131 282.909C410.739 280.75 411.304 278.833 412.021 276.704Z"/><path fill="#0D345D" transform="scale(8 8)" d="M232.583 162.083C240.236 165.189 258.622 181.703 262.045 189.402C261.058 193.012 257.12 196.847 255.129 200.119C252.801 203.942 250.313 207.704 248.163 211.64C246.513 214.376 242.656 225.117 241.426 226.466C240.105 225.219 238.234 218.988 237.254 216.937C233.43 208.941 229.001 203.594 222.597 197.523C222.909 196.434 223.163 194.963 223.361 193.829C225.297 182.775 228.775 172.586 232.583 162.083Z"/><path fill="#0D345D" transform="scale(8 8)" d="M389.975 94.072C401.166 92.9134 411.176 101.052 412.326 112.244C413.476 123.437 405.329 133.44 394.136 134.581C382.955 135.72 372.965 127.585 371.817 116.405C370.669 105.225 378.796 95.2294 389.975 94.072Z"/><path fill="#0D345D" transform="scale(8 8)" d="M368.506 149.112C379.184 148.666 390.815 149.282 401.571 149.032C405.092 148.95 408.85 149.152 412.353 148.984C410.515 169.112 400.099 181.954 378.884 182.803C375.513 182.938 371.958 182.92 368.598 183.089C368.774 179.869 368.545 175.098 368.535 171.75L368.506 149.112Z"/></svg>